<?xml version="1.0" encoding="UTF-8"?>
<!-- Generated by Pixelmator Pro 2.3.8 -->
<svg width="512" height="512" viewBox="0 0 512 512" xmlns="http://www.w3.org/2000/svg" xmlns:xlink="http://www.w3.org/1999/xlink">
    <path id="path119" fill="#8f8f8f" stroke="none" d="M 413 162.200012 C 385.385773 162.200012 363 184.585754 363 212.200012 C 363 239.81424 385.385773 262.200012 413 262.200012 C 440.614227 262.200012 463 239.81424 463 212.200012 C 463 184.585754 440.614227 162.200012 413 162.200012 Z M 413 242.200012 C 396.431458 242.200012 383 228.768555 383 212.200012 C 383 195.63147 396.431458 182.200012 413 182.200012 C 429.568542 182.200012 443 195.63147 443 212.200012 C 443 228.768555 429.568542 242.200012 413 242.200012 Z"/>
    <path id="path121" fill="#8f8f8f" stroke="none" d="M 308 162.200012 C 280.385742 162.200012 258 184.585754 258 212.200012 C 258 239.81424 280.385742 262.200012 308 262.200012 C 335.614227 262.200012 358 239.81424 358 212.200012 C 358 184.585754 335.614227 162.200012 308 162.200012 Z M 308 242.200012 C 291.431458 242.200012 278 228.768555 278 212.200012 C 278 195.63147 291.431458 182.200012 308 182.200012 C 324.568542 182.200012 338 195.63147 338 212.200012 C 338 228.768555 324.568542 242.200012 308 242.200012 Z"/>
    <path id="path123" fill="#714b67" stroke="none" d="M 98 162.200012 C 70.385765 162.200012 48 184.585754 48 212.200012 C 48 239.81424 70.385765 262.200012 98 262.200012 C 125.614235 262.200012 148 239.81424 148 212.200012 C 148 184.585754 125.614235 162.200012 98 162.200012 Z M 98 242.200012 C 81.431458 242.200012 68 228.768555 68 212.200012 C 68 195.63147 81.431458 182.200012 98 182.200012 C 114.568542 182.200012 128 195.63147 128 212.200012 C 128 228.768555 114.568542 242.200012 98 242.200012 Z"/>
    <path id="path125" fill="#8f8f8f" stroke="none" d="M 243 132.100006 C 237.477158 132.100006 233 136.577148 233 142.100006 L 233 172.100006 C 214.456345 158.192322 188.785355 158.85318 170.981842 173.696564 C 153.178314 188.539917 147.910934 213.67337 158.256439 234.416107 C 168.601944 255.158844 191.847412 266.071442 214.414825 260.779694 C 236.982239 255.487946 252.953674 235.379486 253 212.200012 L 253 212.200012 L 253 142.100006 C 253 136.577148 248.522842 132.100006 243 132.100006 Z M 203 242.100006 C 186.431458 242.100006 173 228.668549 173 212.100006 C 173 195.531464 186.431458 182.100006 203 182.100006 C 219.568542 182.100006 233 195.531464 233 212.100006 C 233 228.668549 219.568542 242.100006 203 242.100006 Z"/>
    <path id="rect1587" fill="#714b67" stroke="none" d="M 312.176208 294.612213 L 453.823761 294.612213 C 458.891663 294.612213 463 298.786987 463 303.936768 L 463 370.21524 C 463 375.365082 458.891663 379.539795 453.823761 379.539795 L 312.176208 379.539795 C 307.108368 379.539795 303 375.365082 303 370.21524 L 303 303.936768 C 303 298.786987 307.108368 294.612213 312.176208 294.612213 Z"/>
    <path id="IDE" fill="#ffffff" fill-rule="evenodd" stroke="none" d="M 403.856232 360.883545 L 403.856232 313.553009 L 438.078918 313.553009 L 438.078918 319.138397 L 410.119629 319.138397 L 410.119629 333.634583 L 436.303192 333.634583 L 436.303192 339.187714 L 410.119629 339.187714 L 410.119629 355.298157 L 439.176605 355.298157 L 439.176605 360.883545 Z M 349.871033 360.883545 L 349.871033 313.553009 L 366.175201 313.553009 C 369.855743 313.553009 372.664581 313.778992 374.601715 314.230988 C 377.313721 314.855225 379.627441 315.985168 381.543091 317.620972 C 384.039886 319.730286 385.907013 322.426117 387.144653 325.708496 C 388.382233 328.990845 389.001068 332.741333 389.001068 336.959991 C 389.001068 340.554474 388.58136 343.739929 387.741943 346.51651 C 386.902496 349.29306 385.826324 351.590698 384.513397 353.409454 C 383.200439 355.22821 381.763763 356.659546 380.203278 357.70343 C 378.642792 358.747314 376.759491 359.53833 374.553314 360.076416 C 372.347107 360.614502 369.812744 360.883545 366.950073 360.883545 Z M 356.134399 355.298157 L 366.239746 355.298157 C 369.360718 355.298157 371.80899 355.007599 373.584747 354.426453 C 375.360443 353.845306 376.775604 353.027405 377.830261 351.972748 C 379.31543 350.48761 380.472321 348.491333 381.300934 345.983795 C 382.129608 343.476288 382.543945 340.436096 382.543945 336.863159 C 382.543945 331.912659 381.731445 328.108398 380.106415 325.450195 C 378.481384 322.792023 376.506592 321.010986 374.181976 320.106964 C 372.503174 319.461243 369.801971 319.138397 366.078369 319.138397 L 356.134399 319.138397 Z M 326.460144 360.883545 L 326.460144 313.553009 L 332.723572 313.553009 L 332.723572 360.883545 Z"/>
</svg>
